<mxfile host="app.diagrams.net" modified="2023-12-15T11:07:04.245Z" agent="Mozilla/5.0 (Windows NT 10.0; Win64; x64) AppleWebKit/537.36 (KHTML, like Gecko) Chrome/120.0.0.0 Safari/537.36" etag="wE0gX9qEqZ3H3DIhgo_d" version="22.1.8" type="device">
  <diagram name="PÃ¡gina-1" id="-xyUiIcZgFT_7A-90jFy">
    <mxGraphModel dx="472" dy="1939" grid="1" gridSize="10" guides="1" tooltips="1" connect="1" arrows="1" fold="1" page="1" pageScale="1" pageWidth="827" pageHeight="1169" math="0" shadow="0">
      <root>
        <mxCell id="0" />
        <mxCell id="1" parent="0" />
        <mxCell id="mjYLtM3Xch9HPr4SLD4X-1" value="Veiculo" style="swimlane;fontStyle=1;align=center;verticalAlign=top;childLayout=stackLayout;horizontal=1;startSize=26;horizontalStack=0;resizeParent=1;resizeParentMax=0;resizeLast=0;collapsible=1;marginBottom=0;whiteSpace=wrap;html=1;" vertex="1" parent="1">
          <mxGeometry x="460" y="250" width="170" height="216" as="geometry" />
        </mxCell>
        <mxCell id="mjYLtM3Xch9HPr4SLD4X-2" value="- marca: string&lt;br&gt;" style="text;strokeColor=none;fillColor=none;align=left;verticalAlign=top;spacingLeft=4;spacingRight=4;overflow=hidden;rotatable=0;points=[[0,0.5],[1,0.5]];portConstraint=eastwest;whiteSpace=wrap;html=1;" vertex="1" parent="mjYLtM3Xch9HPr4SLD4X-1">
          <mxGeometry y="26" width="170" height="26" as="geometry" />
        </mxCell>
        <mxCell id="mjYLtM3Xch9HPr4SLD4X-6" value="- modelo: string" style="text;strokeColor=none;fillColor=none;align=left;verticalAlign=top;spacingLeft=4;spacingRight=4;overflow=hidden;rotatable=0;points=[[0,0.5],[1,0.5]];portConstraint=eastwest;whiteSpace=wrap;html=1;" vertex="1" parent="mjYLtM3Xch9HPr4SLD4X-1">
          <mxGeometry y="52" width="170" height="26" as="geometry" />
        </mxCell>
        <mxCell id="mjYLtM3Xch9HPr4SLD4X-10" value="- potenciaCV: double" style="text;strokeColor=none;fillColor=none;align=left;verticalAlign=top;spacingLeft=4;spacingRight=4;overflow=hidden;rotatable=0;points=[[0,0.5],[1,0.5]];portConstraint=eastwest;whiteSpace=wrap;html=1;" vertex="1" parent="mjYLtM3Xch9HPr4SLD4X-1">
          <mxGeometry y="78" width="170" height="26" as="geometry" />
        </mxCell>
        <mxCell id="mjYLtM3Xch9HPr4SLD4X-9" value="- pesoKg: double" style="text;strokeColor=none;fillColor=none;align=left;verticalAlign=top;spacingLeft=4;spacingRight=4;overflow=hidden;rotatable=0;points=[[0,0.5],[1,0.5]];portConstraint=eastwest;whiteSpace=wrap;html=1;" vertex="1" parent="mjYLtM3Xch9HPr4SLD4X-1">
          <mxGeometry y="104" width="170" height="26" as="geometry" />
        </mxCell>
        <mxCell id="mjYLtM3Xch9HPr4SLD4X-8" value="- desgaste: int" style="text;strokeColor=none;fillColor=none;align=left;verticalAlign=top;spacingLeft=4;spacingRight=4;overflow=hidden;rotatable=0;points=[[0,0.5],[1,0.5]];portConstraint=eastwest;whiteSpace=wrap;html=1;" vertex="1" parent="mjYLtM3Xch9HPr4SLD4X-1">
          <mxGeometry y="130" width="170" height="26" as="geometry" />
        </mxCell>
        <mxCell id="mjYLtM3Xch9HPr4SLD4X-7" value="- preco: int" style="text;strokeColor=none;fillColor=none;align=left;verticalAlign=top;spacingLeft=4;spacingRight=4;overflow=hidden;rotatable=0;points=[[0,0.5],[1,0.5]];portConstraint=eastwest;whiteSpace=wrap;html=1;" vertex="1" parent="mjYLtM3Xch9HPr4SLD4X-1">
          <mxGeometry y="156" width="170" height="26" as="geometry" />
        </mxCell>
        <mxCell id="mjYLtM3Xch9HPr4SLD4X-3" value="" style="line;strokeWidth=1;fillColor=none;align=left;verticalAlign=middle;spacingTop=-1;spacingLeft=3;spacingRight=3;rotatable=0;labelPosition=right;points=[];portConstraint=eastwest;strokeColor=inherit;" vertex="1" parent="mjYLtM3Xch9HPr4SLD4X-1">
          <mxGeometry y="182" width="170" height="8" as="geometry" />
        </mxCell>
        <mxCell id="mjYLtM3Xch9HPr4SLD4X-4" value="+ mostraDetalhes(): void" style="text;strokeColor=none;fillColor=none;align=left;verticalAlign=top;spacingLeft=4;spacingRight=4;overflow=hidden;rotatable=0;points=[[0,0.5],[1,0.5]];portConstraint=eastwest;whiteSpace=wrap;html=1;" vertex="1" parent="mjYLtM3Xch9HPr4SLD4X-1">
          <mxGeometry y="190" width="170" height="26" as="geometry" />
        </mxCell>
        <mxCell id="mjYLtM3Xch9HPr4SLD4X-11" value="Carro" style="swimlane;fontStyle=1;align=center;verticalAlign=top;childLayout=stackLayout;horizontal=1;startSize=26;horizontalStack=0;resizeParent=1;resizeParentMax=0;resizeLast=0;collapsible=1;marginBottom=0;whiteSpace=wrap;html=1;" vertex="1" parent="1">
          <mxGeometry x="70" y="-70" width="220" height="112" as="geometry" />
        </mxCell>
        <mxCell id="mjYLtM3Xch9HPr4SLD4X-12" value="- tipoCarro:TipoCarro" style="text;strokeColor=none;fillColor=none;align=left;verticalAlign=top;spacingLeft=4;spacingRight=4;overflow=hidden;rotatable=0;points=[[0,0.5],[1,0.5]];portConstraint=eastwest;whiteSpace=wrap;html=1;" vertex="1" parent="mjYLtM3Xch9HPr4SLD4X-11">
          <mxGeometry y="26" width="220" height="26" as="geometry" />
        </mxCell>
        <mxCell id="mjYLtM3Xch9HPr4SLD4X-15" value="- Arraylist&amp;lt;Modificacao&amp;gt; kitCorrida" style="text;strokeColor=none;fillColor=none;align=left;verticalAlign=top;spacingLeft=4;spacingRight=4;overflow=hidden;rotatable=0;points=[[0,0.5],[1,0.5]];portConstraint=eastwest;whiteSpace=wrap;html=1;" vertex="1" parent="mjYLtM3Xch9HPr4SLD4X-11">
          <mxGeometry y="52" width="220" height="26" as="geometry" />
        </mxCell>
        <mxCell id="mjYLtM3Xch9HPr4SLD4X-13" value="" style="line;strokeWidth=1;fillColor=none;align=left;verticalAlign=middle;spacingTop=-1;spacingLeft=3;spacingRight=3;rotatable=0;labelPosition=right;points=[];portConstraint=eastwest;strokeColor=inherit;" vertex="1" parent="mjYLtM3Xch9HPr4SLD4X-11">
          <mxGeometry y="78" width="220" height="8" as="geometry" />
        </mxCell>
        <mxCell id="mjYLtM3Xch9HPr4SLD4X-14" value="+ method(type): type" style="text;strokeColor=none;fillColor=none;align=left;verticalAlign=top;spacingLeft=4;spacingRight=4;overflow=hidden;rotatable=0;points=[[0,0.5],[1,0.5]];portConstraint=eastwest;whiteSpace=wrap;html=1;" vertex="1" parent="mjYLtM3Xch9HPr4SLD4X-11">
          <mxGeometry y="86" width="220" height="26" as="geometry" />
        </mxCell>
        <mxCell id="mjYLtM3Xch9HPr4SLD4X-16" value="Mota" style="swimlane;fontStyle=1;align=center;verticalAlign=top;childLayout=stackLayout;horizontal=1;startSize=26;horizontalStack=0;resizeParent=1;resizeParentMax=0;resizeLast=0;collapsible=1;marginBottom=0;whiteSpace=wrap;html=1;" vertex="1" parent="1">
          <mxGeometry x="377" y="-57" width="290" height="86" as="geometry" />
        </mxCell>
        <mxCell id="mjYLtM3Xch9HPr4SLD4X-18" value="- Arraylist&amp;lt;Habilidade&amp;gt; habilidadesMota" style="text;strokeColor=none;fillColor=none;align=left;verticalAlign=top;spacingLeft=4;spacingRight=4;overflow=hidden;rotatable=0;points=[[0,0.5],[1,0.5]];portConstraint=eastwest;whiteSpace=wrap;html=1;" vertex="1" parent="mjYLtM3Xch9HPr4SLD4X-16">
          <mxGeometry y="26" width="290" height="26" as="geometry" />
        </mxCell>
        <mxCell id="mjYLtM3Xch9HPr4SLD4X-19" value="" style="line;strokeWidth=1;fillColor=none;align=left;verticalAlign=middle;spacingTop=-1;spacingLeft=3;spacingRight=3;rotatable=0;labelPosition=right;points=[];portConstraint=eastwest;strokeColor=inherit;" vertex="1" parent="mjYLtM3Xch9HPr4SLD4X-16">
          <mxGeometry y="52" width="290" height="8" as="geometry" />
        </mxCell>
        <mxCell id="mjYLtM3Xch9HPr4SLD4X-20" value="+ method(type): type" style="text;strokeColor=none;fillColor=none;align=left;verticalAlign=top;spacingLeft=4;spacingRight=4;overflow=hidden;rotatable=0;points=[[0,0.5],[1,0.5]];portConstraint=eastwest;whiteSpace=wrap;html=1;" vertex="1" parent="mjYLtM3Xch9HPr4SLD4X-16">
          <mxGeometry y="60" width="290" height="26" as="geometry" />
        </mxCell>
        <mxCell id="mjYLtM3Xch9HPr4SLD4X-21" value="&lt;span style=&quot;font-weight: normal;&quot;&gt;enumeracao&lt;/span&gt;&lt;br&gt;TipoCarro" style="swimlane;fontStyle=1;align=center;verticalAlign=top;childLayout=stackLayout;horizontal=1;startSize=40;horizontalStack=0;resizeParent=1;resizeParentMax=0;resizeLast=0;collapsible=1;marginBottom=0;whiteSpace=wrap;html=1;" vertex="1" parent="1">
          <mxGeometry x="110" y="-330" width="160" height="118" as="geometry" />
        </mxCell>
        <mxCell id="mjYLtM3Xch9HPr4SLD4X-22" value="- F1" style="text;strokeColor=none;fillColor=none;align=left;verticalAlign=top;spacingLeft=4;spacingRight=4;overflow=hidden;rotatable=0;points=[[0,0.5],[1,0.5]];portConstraint=eastwest;whiteSpace=wrap;html=1;" vertex="1" parent="mjYLtM3Xch9HPr4SLD4X-21">
          <mxGeometry y="40" width="160" height="26" as="geometry" />
        </mxCell>
        <mxCell id="mjYLtM3Xch9HPr4SLD4X-27" value="- Rally" style="text;strokeColor=none;fillColor=none;align=left;verticalAlign=top;spacingLeft=4;spacingRight=4;overflow=hidden;rotatable=0;points=[[0,0.5],[1,0.5]];portConstraint=eastwest;whiteSpace=wrap;html=1;" vertex="1" parent="mjYLtM3Xch9HPr4SLD4X-21">
          <mxGeometry y="66" width="160" height="26" as="geometry" />
        </mxCell>
        <mxCell id="mjYLtM3Xch9HPr4SLD4X-26" value="- GT" style="text;strokeColor=none;fillColor=none;align=left;verticalAlign=top;spacingLeft=4;spacingRight=4;overflow=hidden;rotatable=0;points=[[0,0.5],[1,0.5]];portConstraint=eastwest;whiteSpace=wrap;html=1;" vertex="1" parent="mjYLtM3Xch9HPr4SLD4X-21">
          <mxGeometry y="92" width="160" height="26" as="geometry" />
        </mxCell>
        <mxCell id="mjYLtM3Xch9HPr4SLD4X-28" value="ItemCorrida" style="swimlane;fontStyle=1;align=center;verticalAlign=top;childLayout=stackLayout;horizontal=1;startSize=26;horizontalStack=0;resizeParent=1;resizeParentMax=0;resizeLast=0;collapsible=1;marginBottom=0;whiteSpace=wrap;html=1;" vertex="1" parent="1">
          <mxGeometry x="650" y="500" width="160" height="112" as="geometry" />
        </mxCell>
        <mxCell id="mjYLtM3Xch9HPr4SLD4X-29" value="- nome: string" style="text;strokeColor=none;fillColor=none;align=left;verticalAlign=top;spacingLeft=4;spacingRight=4;overflow=hidden;rotatable=0;points=[[0,0.5],[1,0.5]];portConstraint=eastwest;whiteSpace=wrap;html=1;" vertex="1" parent="mjYLtM3Xch9HPr4SLD4X-28">
          <mxGeometry y="26" width="160" height="26" as="geometry" />
        </mxCell>
        <mxCell id="mjYLtM3Xch9HPr4SLD4X-32" value="- precoFichasCorrida: int" style="text;strokeColor=none;fillColor=none;align=left;verticalAlign=top;spacingLeft=4;spacingRight=4;overflow=hidden;rotatable=0;points=[[0,0.5],[1,0.5]];portConstraint=eastwest;whiteSpace=wrap;html=1;" vertex="1" parent="mjYLtM3Xch9HPr4SLD4X-28">
          <mxGeometry y="52" width="160" height="26" as="geometry" />
        </mxCell>
        <mxCell id="mjYLtM3Xch9HPr4SLD4X-30" value="" style="line;strokeWidth=1;fillColor=none;align=left;verticalAlign=middle;spacingTop=-1;spacingLeft=3;spacingRight=3;rotatable=0;labelPosition=right;points=[];portConstraint=eastwest;strokeColor=inherit;" vertex="1" parent="mjYLtM3Xch9HPr4SLD4X-28">
          <mxGeometry y="78" width="160" height="8" as="geometry" />
        </mxCell>
        <mxCell id="mjYLtM3Xch9HPr4SLD4X-31" value="+ method(type): type" style="text;strokeColor=none;fillColor=none;align=left;verticalAlign=top;spacingLeft=4;spacingRight=4;overflow=hidden;rotatable=0;points=[[0,0.5],[1,0.5]];portConstraint=eastwest;whiteSpace=wrap;html=1;" vertex="1" parent="mjYLtM3Xch9HPr4SLD4X-28">
          <mxGeometry y="86" width="160" height="26" as="geometry" />
        </mxCell>
        <mxCell id="mjYLtM3Xch9HPr4SLD4X-33" value="Modificacao" style="swimlane;fontStyle=1;align=center;verticalAlign=top;childLayout=stackLayout;horizontal=1;startSize=26;horizontalStack=0;resizeParent=1;resizeParentMax=0;resizeLast=0;collapsible=1;marginBottom=0;whiteSpace=wrap;html=1;" vertex="1" parent="1">
          <mxGeometry x="414" y="680" width="216" height="190" as="geometry" />
        </mxCell>
        <mxCell id="mjYLtM3Xch9HPr4SLD4X-34" value="- nome: string" style="text;strokeColor=none;fillColor=none;align=left;verticalAlign=top;spacingLeft=4;spacingRight=4;overflow=hidden;rotatable=0;points=[[0,0.5],[1,0.5]];portConstraint=eastwest;whiteSpace=wrap;html=1;" vertex="1" parent="mjYLtM3Xch9HPr4SLD4X-33">
          <mxGeometry y="26" width="216" height="26" as="geometry" />
        </mxCell>
        <mxCell id="mjYLtM3Xch9HPr4SLD4X-40" value="- precoFichasCorrida: int" style="text;strokeColor=none;fillColor=none;align=left;verticalAlign=top;spacingLeft=4;spacingRight=4;overflow=hidden;rotatable=0;points=[[0,0.5],[1,0.5]];portConstraint=eastwest;whiteSpace=wrap;html=1;" vertex="1" parent="mjYLtM3Xch9HPr4SLD4X-33">
          <mxGeometry y="52" width="216" height="26" as="geometry" />
        </mxCell>
        <mxCell id="mjYLtM3Xch9HPr4SLD4X-39" value="- diminuicaoDesgaste: int" style="text;strokeColor=none;fillColor=none;align=left;verticalAlign=top;spacingLeft=4;spacingRight=4;overflow=hidden;rotatable=0;points=[[0,0.5],[1,0.5]];portConstraint=eastwest;whiteSpace=wrap;html=1;" vertex="1" parent="mjYLtM3Xch9HPr4SLD4X-33">
          <mxGeometry y="78" width="216" height="26" as="geometry" />
        </mxCell>
        <mxCell id="mjYLtM3Xch9HPr4SLD4X-37" value="- diminuicaoPeso: double" style="text;strokeColor=none;fillColor=none;align=left;verticalAlign=top;spacingLeft=4;spacingRight=4;overflow=hidden;rotatable=0;points=[[0,0.5],[1,0.5]];portConstraint=eastwest;whiteSpace=wrap;html=1;" vertex="1" parent="mjYLtM3Xch9HPr4SLD4X-33">
          <mxGeometry y="104" width="216" height="26" as="geometry" />
        </mxCell>
        <mxCell id="mjYLtM3Xch9HPr4SLD4X-42" value="- Arraylist&amp;lt;string&amp;gt; carrosPermitidos" style="text;strokeColor=none;fillColor=none;align=left;verticalAlign=top;spacingLeft=4;spacingRight=4;overflow=hidden;rotatable=0;points=[[0,0.5],[1,0.5]];portConstraint=eastwest;whiteSpace=wrap;html=1;" vertex="1" parent="mjYLtM3Xch9HPr4SLD4X-33">
          <mxGeometry y="130" width="216" height="26" as="geometry" />
        </mxCell>
        <mxCell id="mjYLtM3Xch9HPr4SLD4X-35" value="" style="line;strokeWidth=1;fillColor=none;align=left;verticalAlign=middle;spacingTop=-1;spacingLeft=3;spacingRight=3;rotatable=0;labelPosition=right;points=[];portConstraint=eastwest;strokeColor=inherit;" vertex="1" parent="mjYLtM3Xch9HPr4SLD4X-33">
          <mxGeometry y="156" width="216" height="8" as="geometry" />
        </mxCell>
        <mxCell id="mjYLtM3Xch9HPr4SLD4X-36" value="+ mostrarDetalhes(): void" style="text;strokeColor=none;fillColor=none;align=left;verticalAlign=top;spacingLeft=4;spacingRight=4;overflow=hidden;rotatable=0;points=[[0,0.5],[1,0.5]];portConstraint=eastwest;whiteSpace=wrap;html=1;" vertex="1" parent="mjYLtM3Xch9HPr4SLD4X-33">
          <mxGeometry y="164" width="216" height="26" as="geometry" />
        </mxCell>
        <mxCell id="mjYLtM3Xch9HPr4SLD4X-43" value="Habilidade" style="swimlane;fontStyle=1;align=center;verticalAlign=top;childLayout=stackLayout;horizontal=1;startSize=26;horizontalStack=0;resizeParent=1;resizeParentMax=0;resizeLast=0;collapsible=1;marginBottom=0;whiteSpace=wrap;html=1;" vertex="1" parent="1">
          <mxGeometry x="730" y="690" width="160" height="86" as="geometry" />
        </mxCell>
        <mxCell id="mjYLtM3Xch9HPr4SLD4X-44" value="- aumentoPotencia(: int" style="text;strokeColor=none;fillColor=none;align=left;verticalAlign=top;spacingLeft=4;spacingRight=4;overflow=hidden;rotatable=0;points=[[0,0.5],[1,0.5]];portConstraint=eastwest;whiteSpace=wrap;html=1;" vertex="1" parent="mjYLtM3Xch9HPr4SLD4X-43">
          <mxGeometry y="26" width="160" height="26" as="geometry" />
        </mxCell>
        <mxCell id="mjYLtM3Xch9HPr4SLD4X-45" value="" style="line;strokeWidth=1;fillColor=none;align=left;verticalAlign=middle;spacingTop=-1;spacingLeft=3;spacingRight=3;rotatable=0;labelPosition=right;points=[];portConstraint=eastwest;strokeColor=inherit;" vertex="1" parent="mjYLtM3Xch9HPr4SLD4X-43">
          <mxGeometry y="52" width="160" height="8" as="geometry" />
        </mxCell>
        <mxCell id="mjYLtM3Xch9HPr4SLD4X-46" value="+ mostrarDetalhes(): void" style="text;strokeColor=none;fillColor=none;align=left;verticalAlign=top;spacingLeft=4;spacingRight=4;overflow=hidden;rotatable=0;points=[[0,0.5],[1,0.5]];portConstraint=eastwest;whiteSpace=wrap;html=1;" vertex="1" parent="mjYLtM3Xch9HPr4SLD4X-43">
          <mxGeometry y="60" width="160" height="26" as="geometry" />
        </mxCell>
        <mxCell id="mjYLtM3Xch9HPr4SLD4X-47" value="" style="endArrow=block;endSize=16;endFill=0;html=1;rounded=0;edgeStyle=orthogonalEdgeStyle;exitX=0.347;exitY=-0.016;exitDx=0;exitDy=0;exitPerimeter=0;entryX=0.475;entryY=0.962;entryDx=0;entryDy=0;entryPerimeter=0;" edge="1" parent="1" source="mjYLtM3Xch9HPr4SLD4X-33" target="mjYLtM3Xch9HPr4SLD4X-31">
          <mxGeometry width="160" relative="1" as="geometry">
            <mxPoint x="520" y="760" as="sourcePoint" />
            <mxPoint x="570" y="580" as="targetPoint" />
          </mxGeometry>
        </mxCell>
        <mxCell id="mjYLtM3Xch9HPr4SLD4X-51" value="" style="html=1;verticalAlign=bottom;endArrow=block;curved=0;rounded=0;edgeStyle=orthogonalEdgeStyle;exitX=0.35;exitY=-0.023;exitDx=0;exitDy=0;exitPerimeter=0;entryX=0.719;entryY=1.038;entryDx=0;entryDy=0;entryPerimeter=0;endFill=0;endSize=15;" edge="1" parent="1" source="mjYLtM3Xch9HPr4SLD4X-43" target="mjYLtM3Xch9HPr4SLD4X-31">
          <mxGeometry width="80" relative="1" as="geometry">
            <mxPoint x="560" y="360" as="sourcePoint" />
            <mxPoint x="640" y="360" as="targetPoint" />
          </mxGeometry>
        </mxCell>
        <mxCell id="mjYLtM3Xch9HPr4SLD4X-52" value="" style="html=1;verticalAlign=bottom;endArrow=block;curved=0;rounded=0;edgeStyle=orthogonalEdgeStyle;endFill=0;endSize=15;" edge="1" parent="1" target="mjYLtM3Xch9HPr4SLD4X-1">
          <mxGeometry width="80" relative="1" as="geometry">
            <mxPoint x="545" y="30" as="sourcePoint" />
            <mxPoint x="605" y="603" as="targetPoint" />
            <Array as="points">
              <mxPoint x="545" y="32" />
            </Array>
          </mxGeometry>
        </mxCell>
        <mxCell id="mjYLtM3Xch9HPr4SLD4X-54" value="" style="html=1;verticalAlign=bottom;endArrow=block;rounded=0;exitX=0.85;exitY=1.077;exitDx=0;exitDy=0;exitPerimeter=0;endFill=0;endSize=15;entryX=0.153;entryY=-0.005;entryDx=0;entryDy=0;entryPerimeter=0;" edge="1" parent="1" source="mjYLtM3Xch9HPr4SLD4X-14" target="mjYLtM3Xch9HPr4SLD4X-1">
          <mxGeometry width="80" relative="1" as="geometry">
            <mxPoint x="690" y="61" as="sourcePoint" />
            <mxPoint x="587" y="258" as="targetPoint" />
          </mxGeometry>
        </mxCell>
        <mxCell id="mjYLtM3Xch9HPr4SLD4X-55" value="" style="html=1;verticalAlign=bottom;endArrow=block;rounded=0;exitX=0.438;exitY=1;exitDx=0;exitDy=0;exitPerimeter=0;endFill=0;endSize=15;" edge="1" parent="1" source="mjYLtM3Xch9HPr4SLD4X-26" target="mjYLtM3Xch9HPr4SLD4X-11">
          <mxGeometry width="80" relative="1" as="geometry">
            <mxPoint x="267" y="54" as="sourcePoint" />
            <mxPoint x="496" y="259" as="targetPoint" />
          </mxGeometry>
        </mxCell>
        <mxCell id="mjYLtM3Xch9HPr4SLD4X-60" value="Oficina" style="swimlane;fontStyle=1;align=center;verticalAlign=top;childLayout=stackLayout;horizontal=1;startSize=26;horizontalStack=0;resizeParent=1;resizeParentMax=0;resizeLast=0;collapsible=1;marginBottom=0;whiteSpace=wrap;html=1;" vertex="1" parent="1">
          <mxGeometry x="750" y="220" width="230" height="216" as="geometry" />
        </mxCell>
        <mxCell id="mjYLtM3Xch9HPr4SLD4X-115" value="- Arraylist&amp;lt;Veiculo&amp;gt; garagem" style="text;strokeColor=none;fillColor=none;align=left;verticalAlign=top;spacingLeft=4;spacingRight=4;overflow=hidden;rotatable=0;points=[[0,0.5],[1,0.5]];portConstraint=eastwest;whiteSpace=wrap;html=1;" vertex="1" parent="mjYLtM3Xch9HPr4SLD4X-60">
          <mxGeometry y="26" width="230" height="26" as="geometry" />
        </mxCell>
        <mxCell id="mjYLtM3Xch9HPr4SLD4X-61" value="- Arraylist&amp;lt;Veiculo&amp;gt; garagem" style="text;strokeColor=none;fillColor=none;align=left;verticalAlign=top;spacingLeft=4;spacingRight=4;overflow=hidden;rotatable=0;points=[[0,0.5],[1,0.5]];portConstraint=eastwest;whiteSpace=wrap;html=1;" vertex="1" parent="mjYLtM3Xch9HPr4SLD4X-60">
          <mxGeometry y="52" width="230" height="26" as="geometry" />
        </mxCell>
        <mxCell id="mjYLtM3Xch9HPr4SLD4X-64" value="- Arraylist&amp;lt;itemCorrida&amp;gt;stock" style="text;strokeColor=none;fillColor=none;align=left;verticalAlign=top;spacingLeft=4;spacingRight=4;overflow=hidden;rotatable=0;points=[[0,0.5],[1,0.5]];portConstraint=eastwest;whiteSpace=wrap;html=1;" vertex="1" parent="mjYLtM3Xch9HPr4SLD4X-60">
          <mxGeometry y="78" width="230" height="26" as="geometry" />
        </mxCell>
        <mxCell id="mjYLtM3Xch9HPr4SLD4X-62" value="" style="line;strokeWidth=1;fillColor=none;align=left;verticalAlign=middle;spacingTop=-1;spacingLeft=3;spacingRight=3;rotatable=0;labelPosition=right;points=[];portConstraint=eastwest;strokeColor=inherit;" vertex="1" parent="mjYLtM3Xch9HPr4SLD4X-60">
          <mxGeometry y="104" width="230" height="8" as="geometry" />
        </mxCell>
        <mxCell id="mjYLtM3Xch9HPr4SLD4X-63" value="+ imprimirStock(): void" style="text;strokeColor=none;fillColor=none;align=left;verticalAlign=top;spacingLeft=4;spacingRight=4;overflow=hidden;rotatable=0;points=[[0,0.5],[1,0.5]];portConstraint=eastwest;whiteSpace=wrap;html=1;" vertex="1" parent="mjYLtM3Xch9HPr4SLD4X-60">
          <mxGeometry y="112" width="230" height="26" as="geometry" />
        </mxCell>
        <mxCell id="mjYLtM3Xch9HPr4SLD4X-67" value="+ imprimirGaragem(): void" style="text;strokeColor=none;fillColor=none;align=left;verticalAlign=top;spacingLeft=4;spacingRight=4;overflow=hidden;rotatable=0;points=[[0,0.5],[1,0.5]];portConstraint=eastwest;whiteSpace=wrap;html=1;" vertex="1" parent="mjYLtM3Xch9HPr4SLD4X-60">
          <mxGeometry y="138" width="230" height="26" as="geometry" />
        </mxCell>
        <mxCell id="mjYLtM3Xch9HPr4SLD4X-66" value="+ venderItem(Piloto): void" style="text;strokeColor=none;fillColor=none;align=left;verticalAlign=top;spacingLeft=4;spacingRight=4;overflow=hidden;rotatable=0;points=[[0,0.5],[1,0.5]];portConstraint=eastwest;whiteSpace=wrap;html=1;" vertex="1" parent="mjYLtM3Xch9HPr4SLD4X-60">
          <mxGeometry y="164" width="230" height="26" as="geometry" />
        </mxCell>
        <mxCell id="mjYLtM3Xch9HPr4SLD4X-65" value="+ venderVeiculo(Piloto): void" style="text;strokeColor=none;fillColor=none;align=left;verticalAlign=top;spacingLeft=4;spacingRight=4;overflow=hidden;rotatable=0;points=[[0,0.5],[1,0.5]];portConstraint=eastwest;whiteSpace=wrap;html=1;" vertex="1" parent="mjYLtM3Xch9HPr4SLD4X-60">
          <mxGeometry y="190" width="230" height="26" as="geometry" />
        </mxCell>
        <mxCell id="mjYLtM3Xch9HPr4SLD4X-68" value="Pista" style="swimlane;fontStyle=1;align=center;verticalAlign=top;childLayout=stackLayout;horizontal=1;startSize=26;horizontalStack=0;resizeParent=1;resizeParentMax=0;resizeLast=0;collapsible=1;marginBottom=0;whiteSpace=wrap;html=1;" vertex="1" parent="1">
          <mxGeometry x="1240" y="470" width="260" height="216" as="geometry" />
        </mxCell>
        <mxCell id="mjYLtM3Xch9HPr4SLD4X-69" value="- nome: string" style="text;strokeColor=none;fillColor=none;align=left;verticalAlign=top;spacingLeft=4;spacingRight=4;overflow=hidden;rotatable=0;points=[[0,0.5],[1,0.5]];portConstraint=eastwest;whiteSpace=wrap;html=1;" vertex="1" parent="mjYLtM3Xch9HPr4SLD4X-68">
          <mxGeometry y="26" width="260" height="26" as="geometry" />
        </mxCell>
        <mxCell id="mjYLtM3Xch9HPr4SLD4X-76" value="- tempo: double" style="text;strokeColor=none;fillColor=none;align=left;verticalAlign=top;spacingLeft=4;spacingRight=4;overflow=hidden;rotatable=0;points=[[0,0.5],[1,0.5]];portConstraint=eastwest;whiteSpace=wrap;html=1;" vertex="1" parent="mjYLtM3Xch9HPr4SLD4X-68">
          <mxGeometry y="52" width="260" height="26" as="geometry" />
        </mxCell>
        <mxCell id="mjYLtM3Xch9HPr4SLD4X-75" value="- tempoRecordeSeg: double" style="text;strokeColor=none;fillColor=none;align=left;verticalAlign=top;spacingLeft=4;spacingRight=4;overflow=hidden;rotatable=0;points=[[0,0.5],[1,0.5]];portConstraint=eastwest;whiteSpace=wrap;html=1;" vertex="1" parent="mjYLtM3Xch9HPr4SLD4X-68">
          <mxGeometry y="78" width="260" height="26" as="geometry" />
        </mxCell>
        <mxCell id="mjYLtM3Xch9HPr4SLD4X-74" value="- distanciaVoltaM: double" style="text;strokeColor=none;fillColor=none;align=left;verticalAlign=top;spacingLeft=4;spacingRight=4;overflow=hidden;rotatable=0;points=[[0,0.5],[1,0.5]];portConstraint=eastwest;whiteSpace=wrap;html=1;" vertex="1" parent="mjYLtM3Xch9HPr4SLD4X-68">
          <mxGeometry y="104" width="260" height="26" as="geometry" />
        </mxCell>
        <mxCell id="mjYLtM3Xch9HPr4SLD4X-73" value="- quantidadeVoltas: int" style="text;strokeColor=none;fillColor=none;align=left;verticalAlign=top;spacingLeft=4;spacingRight=4;overflow=hidden;rotatable=0;points=[[0,0.5],[1,0.5]];portConstraint=eastwest;whiteSpace=wrap;html=1;" vertex="1" parent="mjYLtM3Xch9HPr4SLD4X-68">
          <mxGeometry y="130" width="260" height="26" as="geometry" />
        </mxCell>
        <mxCell id="mjYLtM3Xch9HPr4SLD4X-72" value="- Arraylist&amp;lt;Momento&amp;gt; momentosPista" style="text;strokeColor=none;fillColor=none;align=left;verticalAlign=top;spacingLeft=4;spacingRight=4;overflow=hidden;rotatable=0;points=[[0,0.5],[1,0.5]];portConstraint=eastwest;whiteSpace=wrap;html=1;" vertex="1" parent="mjYLtM3Xch9HPr4SLD4X-68">
          <mxGeometry y="156" width="260" height="26" as="geometry" />
        </mxCell>
        <mxCell id="mjYLtM3Xch9HPr4SLD4X-70" value="" style="line;strokeWidth=1;fillColor=none;align=left;verticalAlign=middle;spacingTop=-1;spacingLeft=3;spacingRight=3;rotatable=0;labelPosition=right;points=[];portConstraint=eastwest;strokeColor=inherit;" vertex="1" parent="mjYLtM3Xch9HPr4SLD4X-68">
          <mxGeometry y="182" width="260" height="8" as="geometry" />
        </mxCell>
        <mxCell id="mjYLtM3Xch9HPr4SLD4X-71" value="+ method(type): type" style="text;strokeColor=none;fillColor=none;align=left;verticalAlign=top;spacingLeft=4;spacingRight=4;overflow=hidden;rotatable=0;points=[[0,0.5],[1,0.5]];portConstraint=eastwest;whiteSpace=wrap;html=1;" vertex="1" parent="mjYLtM3Xch9HPr4SLD4X-68">
          <mxGeometry y="190" width="260" height="26" as="geometry" />
        </mxCell>
        <mxCell id="mjYLtM3Xch9HPr4SLD4X-77" value="Momento" style="swimlane;fontStyle=1;align=center;verticalAlign=top;childLayout=stackLayout;horizontal=1;startSize=26;horizontalStack=0;resizeParent=1;resizeParentMax=0;resizeLast=0;collapsible=1;marginBottom=0;whiteSpace=wrap;html=1;" vertex="1" parent="1">
          <mxGeometry x="920" y="570" width="260" height="138" as="geometry" />
        </mxCell>
        <mxCell id="mjYLtM3Xch9HPr4SLD4X-78" value="- nome: string" style="text;strokeColor=none;fillColor=none;align=left;verticalAlign=top;spacingLeft=4;spacingRight=4;overflow=hidden;rotatable=0;points=[[0,0.5],[1,0.5]];portConstraint=eastwest;whiteSpace=wrap;html=1;" vertex="1" parent="mjYLtM3Xch9HPr4SLD4X-77">
          <mxGeometry y="26" width="260" height="26" as="geometry" />
        </mxCell>
        <mxCell id="mjYLtM3Xch9HPr4SLD4X-79" value="- atrasoPeso: double" style="text;strokeColor=none;fillColor=none;align=left;verticalAlign=top;spacingLeft=4;spacingRight=4;overflow=hidden;rotatable=0;points=[[0,0.5],[1,0.5]];portConstraint=eastwest;whiteSpace=wrap;html=1;" vertex="1" parent="mjYLtM3Xch9HPr4SLD4X-77">
          <mxGeometry y="52" width="260" height="26" as="geometry" />
        </mxCell>
        <mxCell id="mjYLtM3Xch9HPr4SLD4X-80" value="- atrasoPotencia: double" style="text;strokeColor=none;fillColor=none;align=left;verticalAlign=top;spacingLeft=4;spacingRight=4;overflow=hidden;rotatable=0;points=[[0,0.5],[1,0.5]];portConstraint=eastwest;whiteSpace=wrap;html=1;" vertex="1" parent="mjYLtM3Xch9HPr4SLD4X-77">
          <mxGeometry y="78" width="260" height="26" as="geometry" />
        </mxCell>
        <mxCell id="mjYLtM3Xch9HPr4SLD4X-84" value="" style="line;strokeWidth=1;fillColor=none;align=left;verticalAlign=middle;spacingTop=-1;spacingLeft=3;spacingRight=3;rotatable=0;labelPosition=right;points=[];portConstraint=eastwest;strokeColor=inherit;" vertex="1" parent="mjYLtM3Xch9HPr4SLD4X-77">
          <mxGeometry y="104" width="260" height="8" as="geometry" />
        </mxCell>
        <mxCell id="mjYLtM3Xch9HPr4SLD4X-85" value="+ method(type): type" style="text;strokeColor=none;fillColor=none;align=left;verticalAlign=top;spacingLeft=4;spacingRight=4;overflow=hidden;rotatable=0;points=[[0,0.5],[1,0.5]];portConstraint=eastwest;whiteSpace=wrap;html=1;" vertex="1" parent="mjYLtM3Xch9HPr4SLD4X-77">
          <mxGeometry y="112" width="260" height="26" as="geometry" />
        </mxCell>
        <mxCell id="mjYLtM3Xch9HPr4SLD4X-90" value="Piloto" style="swimlane;fontStyle=1;align=center;verticalAlign=top;childLayout=stackLayout;horizontal=1;startSize=26;horizontalStack=0;resizeParent=1;resizeParentMax=0;resizeLast=0;collapsible=1;marginBottom=0;whiteSpace=wrap;html=1;" vertex="1" parent="1">
          <mxGeometry x="910" y="-80" width="170" height="190" as="geometry" />
        </mxCell>
        <mxCell id="mjYLtM3Xch9HPr4SLD4X-91" value="- marca: string&lt;br&gt;" style="text;strokeColor=none;fillColor=none;align=left;verticalAlign=top;spacingLeft=4;spacingRight=4;overflow=hidden;rotatable=0;points=[[0,0.5],[1,0.5]];portConstraint=eastwest;whiteSpace=wrap;html=1;" vertex="1" parent="mjYLtM3Xch9HPr4SLD4X-90">
          <mxGeometry y="26" width="170" height="26" as="geometry" />
        </mxCell>
        <mxCell id="mjYLtM3Xch9HPr4SLD4X-92" value="- fichasCorrida: int" style="text;strokeColor=none;fillColor=none;align=left;verticalAlign=top;spacingLeft=4;spacingRight=4;overflow=hidden;rotatable=0;points=[[0,0.5],[1,0.5]];portConstraint=eastwest;whiteSpace=wrap;html=1;" vertex="1" parent="mjYLtM3Xch9HPr4SLD4X-90">
          <mxGeometry y="52" width="170" height="26" as="geometry" />
        </mxCell>
        <mxCell id="mjYLtM3Xch9HPr4SLD4X-93" value="- veiculoAtual: Veiculo" style="text;strokeColor=none;fillColor=none;align=left;verticalAlign=top;spacingLeft=4;spacingRight=4;overflow=hidden;rotatable=0;points=[[0,0.5],[1,0.5]];portConstraint=eastwest;whiteSpace=wrap;html=1;" vertex="1" parent="mjYLtM3Xch9HPr4SLD4X-90">
          <mxGeometry y="78" width="170" height="26" as="geometry" />
        </mxCell>
        <mxCell id="mjYLtM3Xch9HPr4SLD4X-94" value="- vitorias: int" style="text;strokeColor=none;fillColor=none;align=left;verticalAlign=top;spacingLeft=4;spacingRight=4;overflow=hidden;rotatable=0;points=[[0,0.5],[1,0.5]];portConstraint=eastwest;whiteSpace=wrap;html=1;" vertex="1" parent="mjYLtM3Xch9HPr4SLD4X-90">
          <mxGeometry y="104" width="170" height="26" as="geometry" />
        </mxCell>
        <mxCell id="mjYLtM3Xch9HPr4SLD4X-97" value="" style="line;strokeWidth=1;fillColor=none;align=left;verticalAlign=middle;spacingTop=-1;spacingLeft=3;spacingRight=3;rotatable=0;labelPosition=right;points=[];portConstraint=eastwest;strokeColor=inherit;" vertex="1" parent="mjYLtM3Xch9HPr4SLD4X-90">
          <mxGeometry y="130" width="170" height="8" as="geometry" />
        </mxCell>
        <mxCell id="mjYLtM3Xch9HPr4SLD4X-98" value="+ usarItem():void" style="text;strokeColor=none;fillColor=none;align=left;verticalAlign=top;spacingLeft=4;spacingRight=4;overflow=hidden;rotatable=0;points=[[0,0.5],[1,0.5]];portConstraint=eastwest;whiteSpace=wrap;html=1;" vertex="1" parent="mjYLtM3Xch9HPr4SLD4X-90">
          <mxGeometry y="138" width="170" height="26" as="geometry" />
        </mxCell>
        <mxCell id="mjYLtM3Xch9HPr4SLD4X-99" value="+ corrida(Pista): double" style="text;strokeColor=none;fillColor=none;align=left;verticalAlign=top;spacingLeft=4;spacingRight=4;overflow=hidden;rotatable=0;points=[[0,0.5],[1,0.5]];portConstraint=eastwest;whiteSpace=wrap;html=1;" vertex="1" parent="mjYLtM3Xch9HPr4SLD4X-90">
          <mxGeometry y="164" width="170" height="26" as="geometry" />
        </mxCell>
        <mxCell id="mjYLtM3Xch9HPr4SLD4X-100" value="Jogo" style="swimlane;fontStyle=1;align=center;verticalAlign=top;childLayout=stackLayout;horizontal=1;startSize=26;horizontalStack=0;resizeParent=1;resizeParentMax=0;resizeLast=0;collapsible=1;marginBottom=0;whiteSpace=wrap;html=1;" vertex="1" parent="1">
          <mxGeometry x="1090" y="200" width="160" height="86" as="geometry" />
        </mxCell>
        <mxCell id="mjYLtM3Xch9HPr4SLD4X-102" value="" style="line;strokeWidth=1;fillColor=none;align=left;verticalAlign=middle;spacingTop=-1;spacingLeft=3;spacingRight=3;rotatable=0;labelPosition=right;points=[];portConstraint=eastwest;strokeColor=inherit;" vertex="1" parent="mjYLtM3Xch9HPr4SLD4X-100">
          <mxGeometry y="26" width="160" height="8" as="geometry" />
        </mxCell>
        <mxCell id="mjYLtM3Xch9HPr4SLD4X-103" value="+ criarPiloto():void" style="text;strokeColor=none;fillColor=none;align=left;verticalAlign=top;spacingLeft=4;spacingRight=4;overflow=hidden;rotatable=0;points=[[0,0.5],[1,0.5]];portConstraint=eastwest;whiteSpace=wrap;html=1;" vertex="1" parent="mjYLtM3Xch9HPr4SLD4X-100">
          <mxGeometry y="34" width="160" height="26" as="geometry" />
        </mxCell>
        <mxCell id="mjYLtM3Xch9HPr4SLD4X-104" value="+ corridasRapidas(Piloto)" style="text;strokeColor=none;fillColor=none;align=left;verticalAlign=top;spacingLeft=4;spacingRight=4;overflow=hidden;rotatable=0;points=[[0,0.5],[1,0.5]];portConstraint=eastwest;whiteSpace=wrap;html=1;" vertex="1" parent="mjYLtM3Xch9HPr4SLD4X-100">
          <mxGeometry y="60" width="160" height="26" as="geometry" />
        </mxCell>
        <mxCell id="mjYLtM3Xch9HPr4SLD4X-108" value="" style="endArrow=none;html=1;rounded=0;exitX=1;exitY=0.5;exitDx=0;exitDy=0;entryX=0;entryY=0.5;entryDx=0;entryDy=0;" edge="1" parent="1" source="mjYLtM3Xch9HPr4SLD4X-6" target="mjYLtM3Xch9HPr4SLD4X-61">
          <mxGeometry relative="1" as="geometry">
            <mxPoint x="620" y="400" as="sourcePoint" />
            <mxPoint x="780" y="400" as="targetPoint" />
          </mxGeometry>
        </mxCell>
        <mxCell id="mjYLtM3Xch9HPr4SLD4X-113" value="n" style="edgeLabel;html=1;align=center;verticalAlign=middle;resizable=0;points=[];" vertex="1" connectable="0" parent="mjYLtM3Xch9HPr4SLD4X-108">
          <mxGeometry x="-0.6223" y="2" relative="1" as="geometry">
            <mxPoint x="-7" y="-6" as="offset" />
          </mxGeometry>
        </mxCell>
        <mxCell id="mjYLtM3Xch9HPr4SLD4X-116" value="1" style="edgeLabel;html=1;align=center;verticalAlign=middle;resizable=0;points=[];" vertex="1" connectable="0" parent="mjYLtM3Xch9HPr4SLD4X-108">
          <mxGeometry x="0.7961" y="-1" relative="1" as="geometry">
            <mxPoint y="-12" as="offset" />
          </mxGeometry>
        </mxCell>
        <mxCell id="mjYLtM3Xch9HPr4SLD4X-111" value="" style="endArrow=none;html=1;rounded=0;exitX=0.25;exitY=0;exitDx=0;exitDy=0;entryX=0;entryY=0.5;entryDx=0;entryDy=0;" edge="1" parent="1" source="mjYLtM3Xch9HPr4SLD4X-28" target="mjYLtM3Xch9HPr4SLD4X-64">
          <mxGeometry relative="1" as="geometry">
            <mxPoint x="640" y="325" as="sourcePoint" />
            <mxPoint x="760" y="295" as="targetPoint" />
          </mxGeometry>
        </mxCell>
        <mxCell id="mjYLtM3Xch9HPr4SLD4X-118" value="n" style="edgeLabel;html=1;align=center;verticalAlign=middle;resizable=0;points=[];" vertex="1" connectable="0" parent="mjYLtM3Xch9HPr4SLD4X-111">
          <mxGeometry x="-0.7737" y="-1" relative="1" as="geometry">
            <mxPoint as="offset" />
          </mxGeometry>
        </mxCell>
        <mxCell id="mjYLtM3Xch9HPr4SLD4X-119" value="1" style="edgeLabel;html=1;align=center;verticalAlign=middle;resizable=0;points=[];" vertex="1" connectable="0" parent="mjYLtM3Xch9HPr4SLD4X-111">
          <mxGeometry x="0.7575" relative="1" as="geometry">
            <mxPoint x="-9" as="offset" />
          </mxGeometry>
        </mxCell>
        <mxCell id="mjYLtM3Xch9HPr4SLD4X-121" value="" style="endArrow=none;html=1;edgeStyle=orthogonalEdgeStyle;rounded=0;entryX=0.5;entryY=0;entryDx=0;entryDy=0;" edge="1" parent="1" source="mjYLtM3Xch9HPr4SLD4X-99" target="mjYLtM3Xch9HPr4SLD4X-100">
          <mxGeometry relative="1" as="geometry">
            <mxPoint x="1010" y="300" as="sourcePoint" />
            <mxPoint x="1170" y="300" as="targetPoint" />
          </mxGeometry>
        </mxCell>
        <mxCell id="mjYLtM3Xch9HPr4SLD4X-124" value="" style="endArrow=none;html=1;rounded=0;exitX=1.006;exitY=0.042;exitDx=0;exitDy=0;exitPerimeter=0;entryX=-0.006;entryY=0.095;entryDx=0;entryDy=0;entryPerimeter=0;" edge="1" parent="1" source="mjYLtM3Xch9HPr4SLD4X-1" target="mjYLtM3Xch9HPr4SLD4X-90">
          <mxGeometry relative="1" as="geometry">
            <mxPoint x="680" y="300" as="sourcePoint" />
            <mxPoint x="840" y="300" as="targetPoint" />
          </mxGeometry>
        </mxCell>
      </root>
    </mxGraphModel>
  </diagram>
</mxfile>
